<svg width="249" height="227" viewBox="0 0 249 227" fill="none" xmlns="http://www.w3.org/2000/svg">
<path d="M84.4978 28.5671C86.8978 22.2671 90.1978 16.4671 95.0978 11.7671C114.698 -7.33293 147.098 -2.53293 160.398 21.4671C170.398 39.6671 180.998 57.4671 191.298 75.4671C208.498 105.367 225.898 135.267 242.898 165.267C257.198 190.367 241.698 222.067 213.298 226.367C195.898 228.967 179.598 220.967 170.598 205.367C155.498 179.067 140.298 152.767 125.198 126.567C124.898 125.967 124.498 125.467 124.098 124.967C122.498 123.667 121.798 121.767 120.798 120.067C114.098 108.267 107.198 96.5671 100.498 84.8671C96.1978 77.2671 91.6978 69.7671 87.3978 62.1671C83.4978 55.3671 81.6978 47.9671 81.8978 40.1671C82.1978 36.1671 82.6978 32.1671 84.4978 28.5671Z" fill="#3C8BD9"/>
<path d="M84.498 28.5671C83.598 32.1671 82.798 35.7671 82.598 39.5671C82.298 47.9671 84.398 55.7671 88.598 63.0671C99.598 81.9671 110.598 100.967 121.498 119.967C122.498 121.667 123.298 123.367 124.298 124.967C118.298 135.367 112.298 145.667 106.198 156.067C97.798 170.567 89.398 185.167 80.898 199.667C80.498 199.667 80.398 199.467 80.298 199.167C80.198 198.367 80.498 197.667 80.698 196.867C84.798 181.867 81.398 168.567 71.098 157.167C64.798 150.267 56.798 146.367 47.598 145.067C35.598 143.367 24.998 146.467 15.498 153.967C13.798 155.267 12.698 157.167 10.698 158.167C10.298 158.167 10.098 157.967 9.99805 157.667C14.798 149.367 19.498 141.067 24.298 132.767C44.098 98.3671 63.898 63.9671 83.798 29.6671C83.998 29.2671 84.298 28.9671 84.498 28.5671Z" fill="#FABC04"/>
<path d="M10.3978 157.967C12.2978 156.267 14.0978 154.467 16.0978 152.867C40.3978 133.667 76.8978 147.567 82.1978 177.967C83.4978 185.267 82.7978 192.267 80.5978 199.267C80.4978 199.867 80.3978 200.367 80.1978 200.967C79.2978 202.567 78.4978 204.267 77.4978 205.867C68.5978 220.567 55.4978 227.867 38.2978 226.767C18.5978 225.367 3.09779 210.567 0.397786 190.967C-0.902214 181.467 0.997786 172.567 5.89779 164.367C6.89779 162.567 8.09779 160.967 9.19779 159.167C9.69779 158.767 9.49779 157.967 10.3978 157.967Z" fill="#34A852"/>
<path d="M10.3978 157.967C9.99777 158.367 9.99777 159.067 9.29777 159.167C9.19777 158.467 9.59777 158.067 9.99777 157.567L10.3978 157.967Z" fill="#FABC04"/>
<path d="M80.1979 200.967C79.7979 200.267 80.1979 199.767 80.5979 199.267C80.6979 199.367 80.8979 199.567 80.9979 199.667L80.1979 200.967Z" fill="#E1C025"/>
</svg>
